<?xml version="1.0" encoding="UTF-8" standalone="no"?>
<!DOCTYPE svg PUBLIC "-//W3C//DTD SVG 1.1//EN" "http://www.w3.org/Graphics/SVG/1.1/DTD/svg11.dtd">
<svg width="120" height="45" viewBox="0 0 120 45" fill="none" xmlns="http://www.w3.org/2000/svg">
<path d="M5.808 33V10.872H13.344V9.38399H5.808C5.808 4.77599 7.968 2.37599 13.2 2.37599V0.743988C7.008 0.743988 3.936 3.62399 3.936 9.38399H0.720001V10.872H3.936V33H5.808Z" fill="black"/>
<path d="M24.9019 31.992C19.0459 31.992 15.6379 27.72 15.6379 21.192C15.6379 14.616 19.1419 10.44 24.9019 10.44C30.6619 10.44 34.0699 14.568 34.0699 21.192C34.0699 27.816 30.6139 31.992 24.9019 31.992ZM24.9019 33.624C31.7179 33.624 35.9899 28.68 35.9899 21.192C35.9899 13.656 31.7659 8.75999 24.9019 8.75999C17.9899 8.75999 13.6699 13.704 13.6699 21.192C13.6699 28.536 17.8459 33.624 24.9019 33.624Z" fill="black"/>
<path d="M41.0554 33V21.096C41.0554 15.768 43.8874 10.68 50.0314 10.68C50.7994 10.68 51.3754 10.728 51.8074 10.776V8.75999H50.2714C46.6234 8.75999 42.4474 10.536 40.9594 16.344V9.38399H39.1354V33H41.0554Z" fill="black"/>
<path d="M69.4879 24.6C69.1519 29.448 64.6399 32.136 60.2719 32.136C55.5679 32.136 53.7439 30.12 53.7439 26.808C53.7439 22.44 56.6719 21.48 61.7599 20.952C65.8399 20.52 68.7199 20.616 69.4879 19.56V24.6ZM71.4079 33V18.072C71.4079 12.12 69.0559 8.75999 62.0959 8.75999C55.0879 8.75999 52.5919 12.168 52.4959 17.064H54.3199C54.5119 12.888 56.5759 10.344 61.9999 10.344C67.4719 10.344 69.4399 12.936 69.4399 17.592C69.2479 19.128 66.1279 19.128 61.7119 19.56C55.5679 20.136 51.8239 21.336 51.8239 27C51.8239 30.984 54.0799 33.624 59.8879 33.624C64.6399 33.624 68.5759 31.032 69.4879 27.576C69.5359 27.768 69.5359 32.856 69.5839 33H71.4079Z" fill="black"/>
<path d="M85.2656 31.608C80.0816 31.608 76.5296 28.104 76.5296 21.144C76.5296 14.04 80.0336 10.488 85.2656 10.488C90.4016 10.488 94.1456 14.136 94.1456 21.192C94.1456 26.472 91.2656 31.608 85.2656 31.608ZM94.0976 33.384C94.0976 39.288 90.0656 42.504 85.0256 42.504C80.2256 42.504 76.3856 39.48 76.3856 34.296H74.5616C74.5616 40.392 79.0256 44.184 85.1696 44.184C91.2176 44.184 96.0176 40.344 96.0176 33.24V9.38399H94.0976V16.248C92.7536 10.488 88.3856 8.75999 84.8816 8.75999C78.9296 8.75999 74.5616 13.128 74.5616 21.048C74.5616 28.728 78.3536 33.192 84.9296 33.192C88.4336 33.192 92.8976 31.224 94.0976 25.8V33.384Z" fill="black"/>
<path d="M117.556 26.04C116.452 29.928 113.62 32.04 109.924 32.04C104.164 32.04 101.092 28.44 100.996 21.528H119.908C119.908 13.8 116.356 8.75999 109.684 8.75999C102.964 8.75999 99.0761 13.464 99.0761 20.76C99.0761 29.352 102.724 33.624 110.02 33.624C114.676 33.624 118.276 30.888 119.572 26.04H117.556ZM101.044 20.184C101.092 14.184 104.26 10.392 109.636 10.392C114.82 10.392 117.844 14.232 117.94 20.184H101.044Z" fill="black"/>
</svg>
