<?xml version="1.0" encoding="UTF-8" standalone="no"?>
<svg width="127" height="45" viewBox="0 0 127 45" fill="none" xmlns="http://www.w3.org/2000/svg">
<path d="M11.328 33V14.76H14.208V9.384H11.328C11.328 7.272 11.568 6.888 14.064 6.888V0.743996C7.15202 0.743996 3.79202 3.624 3.79202 9.384H0.192017V14.76H3.79202V33H11.328Z" fill="black"/>
<path d="M25.8083 27.192C22.6883 27.192 21.2963 25.416 21.2963 21.192C21.2963 16.968 22.6883 15.24 25.8083 15.24C28.9283 15.24 30.3683 16.968 30.3683 21.192C30.3683 25.368 28.9763 27.192 25.8083 27.192ZM25.8083 33.624C33.3443 33.624 38.0963 28.68 38.0963 21.192C38.0963 13.656 33.3923 8.76 25.8083 8.76C18.1283 8.76 13.3763 13.704 13.3763 21.192C13.3763 28.536 17.9843 33.624 25.8083 33.624Z" fill="black"/>
<path d="M47.7874 33V20.568C47.7874 17.304 49.3234 16.44 52.3954 16.44C52.9234 16.44 53.4994 16.488 54.1234 16.584V8.76H53.5474C51.3394 8.76 49.4194 8.76 47.3074 10.824V9.384H40.1074V33H47.7874Z" fill="black"/>
<path d="M68.2204 23.832C68.1244 25.896 67.0684 28.152 63.6124 28.152C62.3164 28.152 61.5004 27.528 61.5004 26.328C61.5004 24.984 62.3164 24.168 65.3884 23.4C67.0684 23.016 67.8364 22.68 68.2684 22.344L68.2204 23.832ZM75.8524 33V18.072C75.8524 12.12 73.2124 8.76 65.5324 8.76C57.7084 8.76 55.0204 12.168 54.8764 17.064H61.6924C61.8364 15.576 62.7004 14.616 65.1484 14.616C66.6364 14.616 68.1724 15.096 68.1724 16.296C68.1724 17.592 67.5484 18.072 65.2444 18.408C58.8604 19.416 54.1084 21 54.1084 26.424C54.1084 31.032 56.4124 33.624 61.8844 33.624C65.7244 33.624 67.9804 32.52 68.8924 31.032C68.9404 31.8 69.1324 32.472 69.4684 33H75.8524Z" fill="black"/>
<path d="M93.9574 33.816C93.9574 36.024 92.7574 37.56 89.6374 37.56C86.4694 37.56 84.9814 36.312 84.9814 34.296H77.8774C77.8774 40.392 82.0534 44.184 89.5414 44.184C97.1254 44.184 101.637 40.344 101.637 33.24V9.384H94.1974V12.024C92.8534 9.864 90.9814 8.76 88.1974 8.76C81.5254 8.76 77.8774 13.896 77.8774 21.048C77.8774 26.712 80.1814 33.192 88.3414 33.192C91.2694 33.192 93.1894 32.184 93.9574 31.176V33.816ZM89.9254 27.24C87.3814 27.24 85.8454 25.512 85.8454 21.144C85.8454 16.776 87.3814 15.144 89.9254 15.144C92.4694 15.144 94.1974 16.824 94.1974 21.144C94.1974 25.464 92.4694 27.24 89.9254 27.24Z" fill="black"/>
<path d="M111.387 18.648C111.627 15.96 112.971 14.808 115.227 14.808C117.579 14.808 118.779 15.96 119.019 18.648H111.387ZM126.555 23.112C126.651 22.248 126.699 21.384 126.699 20.568C126.699 12.744 121.995 8.76 115.275 8.76C107.883 8.76 103.611 13.464 103.611 20.76C103.611 29.256 107.643 33.624 115.707 33.624C120.843 33.624 124.827 30.888 126.315 26.04H118.443C118.203 26.904 116.811 27.528 115.323 27.528C113.163 27.528 111.483 25.512 111.291 23.112H126.555Z" fill="black"/>
</svg>

